<?xml version="1.0" encoding="UTF-8"?>
<svg width="1200pt" height="1200pt" version="1.1" viewBox="0 0 1200 1200" xmlns="http://www.w3.org/2000/svg">
 <g fill="#fff">
  <path d="m198 360h792c33.133 0 60-26.863 60-60s-26.867-60-60-60h-792c-33.137 0-60 26.863-60 60s26.863 60 60 60z"/>
  <path d="m996 540h-792c-33.137 0-60 26.863-60 60 0 33.133 26.863 60 60 60h792c33.133 0 60-26.867 60-60 0-33.137-26.867-60-60-60z"/>
  <path d="m996 840h-792c-33.137 0-60 26.867-60 60s26.863 60 60 60h792c33.133 0 60-26.867 60-60s-26.867-60-60-60z"/>
 </g>
</svg>
